<mxfile host="app.diagrams.net" modified="2022-10-21T01:19:50.845Z" agent="5.0 (Macintosh; Intel Mac OS X 10_14_6) AppleWebKit/537.36 (KHTML, like Gecko) Chrome/105.0.0.0 Safari/537.36" etag="43YbEjbaROT66CyV-pgR" version="20.4.2" type="github">
  <diagram id="Nbi2OOFG4A7icGLgDpQb" name="第 1 页">
    <mxGraphModel dx="1613" dy="491" grid="1" gridSize="10" guides="1" tooltips="1" connect="1" arrows="1" fold="1" page="1" pageScale="1" pageWidth="827" pageHeight="1169" background="none" math="0" shadow="0">
      <root>
        <mxCell id="0" />
        <mxCell id="1" parent="0" />
        <mxCell id="kk27pRFW-uQP8ShshRhL-2" value="部署升级流程图" style="swimlane;childLayout=stackLayout;resizeParent=1;resizeParentMax=0;horizontal=1;startSize=40;horizontalStack=0;fillColor=#92D050;strokeColor=#82b366;fontSize=20;spacingTop=4;spacingBottom=4;swimlaneFillColor=none;arcSize=15;perimeterSpacing=0;gradientColor=none;spacing=2;" parent="1" vertex="1">
          <mxGeometry x="-460" y="50" width="1760" height="2010" as="geometry">
            <mxRectangle x="220" y="250" width="100" height="30" as="alternateBounds" />
          </mxGeometry>
        </mxCell>
        <mxCell id="kk27pRFW-uQP8ShshRhL-3" value="准备阶段" style="swimlane;startSize=30;horizontal=0;fillColor=#92D050;fontSize=14;" parent="kk27pRFW-uQP8ShshRhL-2" vertex="1">
          <mxGeometry y="40" width="1760" height="820" as="geometry" />
        </mxCell>
        <mxCell id="kk27pRFW-uQP8ShshRhL-10" value="技术经理" style="swimlane;fillColor=#92D050;fontSize=14;startSize=30;" parent="kk27pRFW-uQP8ShshRhL-3" vertex="1">
          <mxGeometry x="760" width="200" height="820" as="geometry" />
        </mxCell>
        <mxCell id="OawIMf_CP--zUOg47wnV-19" value="" style="edgeStyle=orthogonalEdgeStyle;rounded=0;orthogonalLoop=1;jettySize=auto;html=1;strokeColor=#C9AB42;" parent="kk27pRFW-uQP8ShshRhL-10" source="OawIMf_CP--zUOg47wnV-17" target="OawIMf_CP--zUOg47wnV-18" edge="1">
          <mxGeometry relative="1" as="geometry" />
        </mxCell>
        <mxCell id="OawIMf_CP--zUOg47wnV-17" value="&lt;font data-font-src=&quot;https://fonts.cdnfonts.com/s/62899/chinese.msyh.woff&quot; face=&quot;Microsoft YaHei-2&quot; style=&quot;font-size: 16px;&quot;&gt;开始&lt;/font&gt;" style="ellipse;whiteSpace=wrap;html=1;shadow=1;sketch=0;fillColor=#f5f5f5;fontColor=#333333;strokeColor=#666666;" parent="kk27pRFW-uQP8ShshRhL-10" vertex="1">
          <mxGeometry x="54" y="50" width="120" height="60" as="geometry" />
        </mxCell>
        <mxCell id="OawIMf_CP--zUOg47wnV-18" value="&lt;font data-font-src=&quot;https://fonts.cdnfonts.com/s/62899/chinese.msyh.woff&quot; face=&quot;Microsoft YaHei-2&quot; style=&quot;font-size: 16px;&quot;&gt;提交发布单&lt;/font&gt;" style="whiteSpace=wrap;html=1;shadow=1;fillColor=#f5f5f5;fontColor=#333333;strokeColor=#666666;" parent="kk27pRFW-uQP8ShshRhL-10" vertex="1">
          <mxGeometry x="54" y="140" width="120" height="60" as="geometry" />
        </mxCell>
        <mxCell id="OawIMf_CP--zUOg47wnV-43" value="&lt;font data-font-src=&quot;https://fonts.cdnfonts.com/s/62899/chinese.msyh.woff&quot; face=&quot;Microsoft YaHei-2&quot; style=&quot;font-size: 16px;&quot;&gt;材料补充完善&lt;/font&gt;" style="whiteSpace=wrap;html=1;fillColor=#f5f5f5;strokeColor=#666666;fontColor=#333333;shadow=1;" parent="kk27pRFW-uQP8ShshRhL-10" vertex="1">
          <mxGeometry x="54" y="350" width="120" height="60" as="geometry" />
        </mxCell>
        <mxCell id="OawIMf_CP--zUOg47wnV-46" value="&lt;font style=&quot;font-size: 16px;&quot;&gt;漏洞修复&lt;/font&gt;" style="whiteSpace=wrap;html=1;fillColor=#f5f5f5;strokeColor=#666666;fontColor=#333333;shadow=1;" parent="kk27pRFW-uQP8ShshRhL-10" vertex="1">
          <mxGeometry x="54" y="440" width="120" height="60" as="geometry" />
        </mxCell>
        <mxCell id="OawIMf_CP--zUOg47wnV-62" value="&lt;font style=&quot;font-size: 16px;&quot;&gt;根据驳回意见调整&lt;/font&gt;" style="whiteSpace=wrap;html=1;fillColor=#f5f5f5;strokeColor=#666666;fontColor=#333333;shadow=1;" parent="kk27pRFW-uQP8ShshRhL-10" vertex="1">
          <mxGeometry x="54" y="550" width="120" height="60" as="geometry" />
        </mxCell>
        <mxCell id="OawIMf_CP--zUOg47wnV-69" value="&lt;font style=&quot;font-size: 16px;&quot;&gt;升级材料&lt;/font&gt;" style="whiteSpace=wrap;html=1;fillColor=#f5f5f5;strokeColor=#666666;fontColor=#333333;shadow=1;" parent="kk27pRFW-uQP8ShshRhL-10" vertex="1">
          <mxGeometry x="54" y="670" width="120" height="60" as="geometry" />
        </mxCell>
        <mxCell id="OawIMf_CP--zUOg47wnV-64" style="edgeStyle=orthogonalEdgeStyle;rounded=0;jumpStyle=arc;jumpSize=12;orthogonalLoop=1;jettySize=auto;html=1;exitX=0.5;exitY=0;exitDx=0;exitDy=0;strokeColor=#C9AB42;fontSize=12;fontColor=#FFC000;entryX=0;entryY=0.5;entryDx=0;entryDy=0;" parent="kk27pRFW-uQP8ShshRhL-10" source="OawIMf_CP--zUOg47wnV-62" target="OawIMf_CP--zUOg47wnV-18" edge="1">
          <mxGeometry relative="1" as="geometry">
            <mxPoint x="20" y="240" as="targetPoint" />
            <Array as="points">
              <mxPoint x="114" y="530" />
              <mxPoint x="30" y="530" />
              <mxPoint x="30" y="170" />
            </Array>
          </mxGeometry>
        </mxCell>
        <mxCell id="OawIMf_CP--zUOg47wnV-55" style="edgeStyle=orthogonalEdgeStyle;rounded=0;jumpStyle=arc;jumpSize=12;orthogonalLoop=1;jettySize=auto;html=1;exitX=0;exitY=0.5;exitDx=0;exitDy=0;strokeColor=#C9AB42;fontSize=12;fontColor=#FFC000;entryX=0;entryY=0.5;entryDx=0;entryDy=0;" parent="kk27pRFW-uQP8ShshRhL-10" source="OawIMf_CP--zUOg47wnV-43" target="OawIMf_CP--zUOg47wnV-18" edge="1">
          <mxGeometry relative="1" as="geometry">
            <mxPoint x="20" y="240" as="targetPoint" />
            <Array as="points">
              <mxPoint x="30" y="380" />
              <mxPoint x="30" y="170" />
            </Array>
          </mxGeometry>
        </mxCell>
        <mxCell id="OawIMf_CP--zUOg47wnV-56" value="重新提交工单" style="edgeLabel;html=1;align=center;verticalAlign=middle;resizable=0;points=[];fontSize=12;fontColor=#C9AB42;" parent="OawIMf_CP--zUOg47wnV-55" vertex="1" connectable="0">
          <mxGeometry x="-0.0323" y="-1" relative="1" as="geometry">
            <mxPoint as="offset" />
          </mxGeometry>
        </mxCell>
        <mxCell id="OawIMf_CP--zUOg47wnV-54" style="edgeStyle=orthogonalEdgeStyle;rounded=0;jumpStyle=arc;jumpSize=12;orthogonalLoop=1;jettySize=auto;html=1;exitX=0;exitY=0.5;exitDx=0;exitDy=0;strokeColor=#C9AB42;fontSize=12;fontColor=#FFC000;" parent="kk27pRFW-uQP8ShshRhL-10" source="OawIMf_CP--zUOg47wnV-46" target="OawIMf_CP--zUOg47wnV-18" edge="1">
          <mxGeometry relative="1" as="geometry">
            <mxPoint x="60" y="170" as="targetPoint" />
            <Array as="points">
              <mxPoint x="30" y="470" />
              <mxPoint x="30" y="170" />
            </Array>
          </mxGeometry>
        </mxCell>
        <mxCell id="kk27pRFW-uQP8ShshRhL-17" value="研发人员" style="swimlane;fillColor=#92D050;fontSize=14;startSize=30;" parent="kk27pRFW-uQP8ShshRhL-3" vertex="1">
          <mxGeometry x="960" width="160" height="820" as="geometry" />
        </mxCell>
        <mxCell id="OawIMf_CP--zUOg47wnV-38" value="&lt;font style=&quot;font-size: 16px;&quot;&gt;BUG修复&lt;/font&gt;" style="whiteSpace=wrap;html=1;fillColor=#f5f5f5;strokeColor=#666666;fontColor=#333333;shadow=1;" parent="kk27pRFW-uQP8ShshRhL-17" vertex="1">
          <mxGeometry x="20" y="290" width="120" height="60" as="geometry" />
        </mxCell>
        <mxCell id="kk27pRFW-uQP8ShshRhL-18" value="测试" style="swimlane;fillColor=#92D050;fontSize=14;startSize=30;" parent="kk27pRFW-uQP8ShshRhL-3" vertex="1">
          <mxGeometry x="1120" width="160" height="820" as="geometry" />
        </mxCell>
        <mxCell id="OawIMf_CP--zUOg47wnV-20" value="&lt;font style=&quot;font-size: 16px;&quot;&gt;测试审批&lt;/font&gt;" style="whiteSpace=wrap;html=1;fillColor=#f5f5f5;strokeColor=#666666;fontColor=#333333;shadow=1;" parent="kk27pRFW-uQP8ShshRhL-18" vertex="1">
          <mxGeometry x="20" y="190" width="120" height="60" as="geometry" />
        </mxCell>
        <mxCell id="OawIMf_CP--zUOg47wnV-26" value="&lt;font style=&quot;font-size: 16px;&quot;&gt;是否通过&lt;/font&gt;" style="rhombus;whiteSpace=wrap;html=1;fillColor=#f5f5f5;strokeColor=#666666;fontColor=#333333;shadow=1;" parent="kk27pRFW-uQP8ShshRhL-18" vertex="1">
          <mxGeometry x="40" y="280" width="80" height="80" as="geometry" />
        </mxCell>
        <mxCell id="OawIMf_CP--zUOg47wnV-27" value="" style="edgeStyle=orthogonalEdgeStyle;rounded=0;orthogonalLoop=1;jettySize=auto;html=1;strokeColor=#C9AB42;" parent="kk27pRFW-uQP8ShshRhL-18" source="OawIMf_CP--zUOg47wnV-20" target="OawIMf_CP--zUOg47wnV-26" edge="1">
          <mxGeometry relative="1" as="geometry" />
        </mxCell>
        <mxCell id="kk27pRFW-uQP8ShshRhL-19" value="运维" style="swimlane;fillColor=#92D050;fontSize=14;startSize=30;" parent="kk27pRFW-uQP8ShshRhL-3" vertex="1">
          <mxGeometry x="1440" width="160" height="820" as="geometry" />
        </mxCell>
        <mxCell id="OawIMf_CP--zUOg47wnV-24" value="&lt;font style=&quot;font-size: 16px;&quot;&gt;安全扫描&lt;/font&gt;" style="whiteSpace=wrap;html=1;fillColor=#f5f5f5;strokeColor=#666666;fontColor=#333333;shadow=1;" parent="kk27pRFW-uQP8ShshRhL-19" vertex="1">
          <mxGeometry x="20" y="190" width="120" height="60" as="geometry" />
        </mxCell>
        <mxCell id="OawIMf_CP--zUOg47wnV-30" value="&lt;font style=&quot;font-size: 16px;&quot;&gt;是否通过&lt;/font&gt;" style="rhombus;whiteSpace=wrap;html=1;fillColor=#f5f5f5;strokeColor=#666666;fontColor=#333333;shadow=1;" parent="kk27pRFW-uQP8ShshRhL-19" vertex="1">
          <mxGeometry x="40" y="430" width="80" height="80" as="geometry" />
        </mxCell>
        <mxCell id="OawIMf_CP--zUOg47wnV-31" value="" style="edgeStyle=orthogonalEdgeStyle;rounded=0;orthogonalLoop=1;jettySize=auto;html=1;strokeColor=#C9AB42;" parent="kk27pRFW-uQP8ShshRhL-19" source="OawIMf_CP--zUOg47wnV-24" target="OawIMf_CP--zUOg47wnV-30" edge="1">
          <mxGeometry relative="1" as="geometry" />
        </mxCell>
        <mxCell id="OawIMf_CP--zUOg47wnV-67" value="&lt;font style=&quot;font-size: 16px;&quot;&gt;正式环境备份&lt;/font&gt;" style="whiteSpace=wrap;html=1;fillColor=#f5f5f5;strokeColor=#666666;fontColor=#333333;shadow=1;" parent="kk27pRFW-uQP8ShshRhL-19" vertex="1">
          <mxGeometry x="20" y="730" width="120" height="60" as="geometry" />
        </mxCell>
        <mxCell id="kk27pRFW-uQP8ShshRhL-20" value="QA" style="swimlane;fillColor=#92D050;fontSize=14;startSize=30;" parent="kk27pRFW-uQP8ShshRhL-3" vertex="1">
          <mxGeometry x="1280" width="160" height="820" as="geometry" />
        </mxCell>
        <mxCell id="OawIMf_CP--zUOg47wnV-29" value="" style="edgeStyle=orthogonalEdgeStyle;rounded=0;orthogonalLoop=1;jettySize=auto;html=1;strokeColor=#C9AB42;" parent="kk27pRFW-uQP8ShshRhL-20" source="OawIMf_CP--zUOg47wnV-22" target="OawIMf_CP--zUOg47wnV-28" edge="1">
          <mxGeometry relative="1" as="geometry" />
        </mxCell>
        <mxCell id="OawIMf_CP--zUOg47wnV-22" value="&lt;font style=&quot;font-size: 16px;&quot;&gt;质量审查&lt;/font&gt;" style="whiteSpace=wrap;html=1;fillColor=#f5f5f5;strokeColor=#666666;fontColor=#333333;shadow=1;" parent="kk27pRFW-uQP8ShshRhL-20" vertex="1">
          <mxGeometry x="20" y="190" width="120" height="60" as="geometry" />
        </mxCell>
        <mxCell id="OawIMf_CP--zUOg47wnV-28" value="&lt;font style=&quot;font-size: 16px;&quot;&gt;是否通过&lt;/font&gt;" style="rhombus;whiteSpace=wrap;html=1;fillColor=#f5f5f5;strokeColor=#666666;fontColor=#333333;shadow=1;" parent="kk27pRFW-uQP8ShshRhL-20" vertex="1">
          <mxGeometry x="40" y="340" width="80" height="80" as="geometry" />
        </mxCell>
        <mxCell id="OawIMf_CP--zUOg47wnV-260" value="&lt;font style=&quot;font-size: 16px;&quot;&gt;全部通过&lt;/font&gt;" style="whiteSpace=wrap;html=1;fillColor=#f5f5f5;strokeColor=#666666;fontColor=#333333;shadow=1;" parent="kk27pRFW-uQP8ShshRhL-20" vertex="1">
          <mxGeometry x="-80" y="610" width="320" height="60" as="geometry" />
        </mxCell>
        <mxCell id="OawIMf_CP--zUOg47wnV-10" value="项目经理" style="swimlane;fillColor=#92D050;fontSize=14;startSize=30;" parent="kk27pRFW-uQP8ShshRhL-3" vertex="1">
          <mxGeometry x="440" width="160" height="820" as="geometry" />
        </mxCell>
        <mxCell id="OawIMf_CP--zUOg47wnV-11" value="产品经理" style="swimlane;fillColor=#92D050;fontSize=14;startSize=30;" parent="kk27pRFW-uQP8ShshRhL-3" vertex="1">
          <mxGeometry x="600" width="160" height="820" as="geometry" />
        </mxCell>
        <mxCell id="OawIMf_CP--zUOg47wnV-12" value="输入" style="swimlane;startSize=30;fillColor=#92D050;fontSize=14;" parent="kk27pRFW-uQP8ShshRhL-3" vertex="1">
          <mxGeometry x="30" width="160" height="820" as="geometry" />
        </mxCell>
        <mxCell id="OawIMf_CP--zUOg47wnV-246" value="&lt;font face=&quot;Microsoft YaHei-2&quot; data-font-src=&quot;https://fonts.cdnfonts.com/s/62899/chinese.msyh.woff&quot; style=&quot;font-size: 16px;&quot; color=&quot;#333333&quot;&gt;数据库初始化/升级脚本&lt;/font&gt;" style="shape=document;whiteSpace=wrap;html=1;boundedLbl=1;shadow=1;sketch=0;fontSize=12;fontColor=#FFC000;fillColor=#F5F5F5;" parent="OawIMf_CP--zUOg47wnV-12" vertex="1">
          <mxGeometry x="20" y="90" width="120" height="80" as="geometry" />
        </mxCell>
        <mxCell id="OawIMf_CP--zUOg47wnV-247" value="&lt;font face=&quot;Microsoft YaHei-2&quot; data-font-src=&quot;https://fonts.cdnfonts.com/s/62899/chinese.msyh.woff&quot; style=&quot;font-size: 16px;&quot; color=&quot;#333333&quot;&gt;安装部署说明书&lt;/font&gt;" style="shape=document;whiteSpace=wrap;html=1;boundedLbl=1;shadow=1;sketch=0;fontSize=12;fontColor=#FFC000;fillColor=#F5F5F5;" parent="OawIMf_CP--zUOg47wnV-12" vertex="1">
          <mxGeometry x="20" y="210" width="120" height="80" as="geometry" />
        </mxCell>
        <mxCell id="OawIMf_CP--zUOg47wnV-248" value="&lt;font face=&quot;Microsoft YaHei-2&quot; data-font-src=&quot;https://fonts.cdnfonts.com/s/62899/chinese.msyh.woff&quot; style=&quot;font-size: 16px;&quot; color=&quot;#333333&quot;&gt;网络拓朴图&lt;/font&gt;" style="shape=document;whiteSpace=wrap;html=1;boundedLbl=1;shadow=1;sketch=0;fontSize=12;fontColor=#FFC000;fillColor=#F5F5F5;" parent="OawIMf_CP--zUOg47wnV-12" vertex="1">
          <mxGeometry x="20" y="320" width="120" height="95" as="geometry" />
        </mxCell>
        <mxCell id="OawIMf_CP--zUOg47wnV-249" value="&lt;font face=&quot;Microsoft YaHei-2&quot; data-font-src=&quot;https://fonts.cdnfonts.com/s/62899/chinese.msyh.woff&quot; style=&quot;font-size: 16px;&quot; color=&quot;#333333&quot;&gt;二进制可执行包&lt;/font&gt;" style="shape=document;whiteSpace=wrap;html=1;boundedLbl=1;shadow=1;sketch=0;fontSize=12;fontColor=#FFC000;fillColor=#F5F5F5;" parent="OawIMf_CP--zUOg47wnV-12" vertex="1">
          <mxGeometry x="20" y="440" width="120" height="80" as="geometry" />
        </mxCell>
        <mxCell id="OawIMf_CP--zUOg47wnV-250" value="&lt;font face=&quot;Microsoft YaHei-2&quot; data-font-src=&quot;https://fonts.cdnfonts.com/s/62899/chinese.msyh.woff&quot; style=&quot;font-size: 16px;&quot; color=&quot;#333333&quot;&gt;性能测试报告&lt;/font&gt;" style="shape=document;whiteSpace=wrap;html=1;boundedLbl=1;shadow=1;sketch=0;fontSize=12;fontColor=#FFC000;fillColor=#F5F5F5;" parent="OawIMf_CP--zUOg47wnV-12" vertex="1">
          <mxGeometry x="20" y="540" width="120" height="80" as="geometry" />
        </mxCell>
        <mxCell id="OawIMf_CP--zUOg47wnV-251" value="&lt;font face=&quot;Microsoft YaHei-2&quot; data-font-src=&quot;https://fonts.cdnfonts.com/s/62899/chinese.msyh.woff&quot; style=&quot;font-size: 16px;&quot; color=&quot;#333333&quot;&gt;遗留问题表(含解决计划)&lt;/font&gt;" style="shape=document;whiteSpace=wrap;html=1;boundedLbl=1;shadow=1;sketch=0;fontSize=12;fontColor=#FFC000;fillColor=#F5F5F5;" parent="OawIMf_CP--zUOg47wnV-12" vertex="1">
          <mxGeometry x="20" y="660" width="120" height="80" as="geometry" />
        </mxCell>
        <mxCell id="OawIMf_CP--zUOg47wnV-13" value="输出" style="swimlane;fillColor=#92D050;fontSize=14;startSize=30;" parent="kk27pRFW-uQP8ShshRhL-3" vertex="1">
          <mxGeometry x="1600" width="160" height="820" as="geometry" />
        </mxCell>
        <mxCell id="OawIMf_CP--zUOg47wnV-14" value="组长" style="swimlane;startSize=30;fillColor=#92D050;fontSize=14;" parent="kk27pRFW-uQP8ShshRhL-3" vertex="1">
          <mxGeometry x="190" width="250" height="820" as="geometry" />
        </mxCell>
        <mxCell id="OawIMf_CP--zUOg47wnV-61" value="" style="edgeStyle=orthogonalEdgeStyle;rounded=0;jumpStyle=arc;jumpSize=12;orthogonalLoop=1;jettySize=auto;html=1;strokeColor=#FFC000;fontSize=12;fontColor=#FFC000;" parent="OawIMf_CP--zUOg47wnV-14" source="OawIMf_CP--zUOg47wnV-32" target="OawIMf_CP--zUOg47wnV-36" edge="1">
          <mxGeometry relative="1" as="geometry" />
        </mxCell>
        <mxCell id="OawIMf_CP--zUOg47wnV-263" value="" style="edgeStyle=orthogonalEdgeStyle;rounded=0;jumpStyle=arc;jumpSize=12;orthogonalLoop=1;jettySize=auto;html=1;strokeColor=#FFC000;fontFamily=Microsoft YaHei-2;fontSource=https%3A%2F%2Ffonts.cdnfonts.com%2Fs%2F62899%2Fchinese.msyh.woff;fontSize=16;fontColor=#333333;" parent="OawIMf_CP--zUOg47wnV-14" source="OawIMf_CP--zUOg47wnV-32" target="OawIMf_CP--zUOg47wnV-36" edge="1">
          <mxGeometry relative="1" as="geometry" />
        </mxCell>
        <mxCell id="OawIMf_CP--zUOg47wnV-32" value="&lt;font face=&quot;Microsoft YaHei-2&quot; data-font-src=&quot;https://fonts.cdnfonts.com/s/62899/chinese.msyh.woff&quot; style=&quot;font-size: 16px;&quot;&gt;收到工单&lt;/font&gt;" style="whiteSpace=wrap;html=1;fillColor=#f5f5f5;strokeColor=#666666;fontColor=#333333;shadow=1;" parent="OawIMf_CP--zUOg47wnV-14" vertex="1">
          <mxGeometry x="110" y="610" width="120" height="60" as="geometry" />
        </mxCell>
        <mxCell id="OawIMf_CP--zUOg47wnV-36" value="&lt;font face=&quot;Microsoft YaHei-2&quot; style=&quot;font-size: 16px;&quot; data-font-src=&quot;https://fonts.cdnfonts.com/s/62899/chinese.msyh.woff&quot;&gt;是否通过&lt;/font&gt;" style="rhombus;whiteSpace=wrap;html=1;fillColor=#f5f5f5;strokeColor=#666666;fontColor=#333333;shadow=1;" parent="OawIMf_CP--zUOg47wnV-14" vertex="1">
          <mxGeometry x="10" y="600" width="80" height="80" as="geometry" />
        </mxCell>
        <mxCell id="OawIMf_CP--zUOg47wnV-37" value="" style="edgeStyle=orthogonalEdgeStyle;rounded=0;orthogonalLoop=1;jettySize=auto;html=1;strokeColor=#C9AB42;fontSize=20;" parent="OawIMf_CP--zUOg47wnV-14" source="OawIMf_CP--zUOg47wnV-32" target="OawIMf_CP--zUOg47wnV-36" edge="1">
          <mxGeometry relative="1" as="geometry" />
        </mxCell>
        <mxCell id="OawIMf_CP--zUOg47wnV-21" value="" style="edgeStyle=orthogonalEdgeStyle;rounded=0;orthogonalLoop=1;jettySize=auto;html=1;strokeColor=#C9AB42;jumpStyle=arc;jumpSize=12;" parent="kk27pRFW-uQP8ShshRhL-3" source="OawIMf_CP--zUOg47wnV-18" target="OawIMf_CP--zUOg47wnV-20" edge="1">
          <mxGeometry relative="1" as="geometry">
            <Array as="points">
              <mxPoint x="1200" y="170" />
            </Array>
          </mxGeometry>
        </mxCell>
        <mxCell id="OawIMf_CP--zUOg47wnV-23" value="" style="edgeStyle=orthogonalEdgeStyle;rounded=0;orthogonalLoop=1;jettySize=auto;html=1;strokeColor=#C9AB42;entryX=0.5;entryY=0;entryDx=0;entryDy=0;jumpStyle=arc;jumpSize=12;" parent="kk27pRFW-uQP8ShshRhL-3" source="OawIMf_CP--zUOg47wnV-18" target="OawIMf_CP--zUOg47wnV-22" edge="1">
          <mxGeometry relative="1" as="geometry" />
        </mxCell>
        <mxCell id="OawIMf_CP--zUOg47wnV-25" value="" style="edgeStyle=orthogonalEdgeStyle;rounded=0;orthogonalLoop=1;jettySize=auto;html=1;strokeColor=#C9AB42;jumpStyle=arc;jumpSize=12;" parent="kk27pRFW-uQP8ShshRhL-3" source="OawIMf_CP--zUOg47wnV-18" target="OawIMf_CP--zUOg47wnV-24" edge="1">
          <mxGeometry relative="1" as="geometry">
            <Array as="points">
              <mxPoint x="1520" y="170" />
            </Array>
          </mxGeometry>
        </mxCell>
        <mxCell id="OawIMf_CP--zUOg47wnV-33" value="" style="edgeStyle=orthogonalEdgeStyle;rounded=0;orthogonalLoop=1;jettySize=auto;html=1;strokeColor=#C9AB42;fontSize=20;" parent="kk27pRFW-uQP8ShshRhL-3" source="OawIMf_CP--zUOg47wnV-26" edge="1">
          <mxGeometry relative="1" as="geometry">
            <mxPoint x="1360" y="610" as="targetPoint" />
            <Array as="points">
              <mxPoint x="1200" y="560" />
              <mxPoint x="1360" y="560" />
            </Array>
          </mxGeometry>
        </mxCell>
        <mxCell id="OawIMf_CP--zUOg47wnV-50" value="通过" style="edgeLabel;html=1;align=center;verticalAlign=middle;resizable=0;points=[];fontSize=12;fontColor=#C9AB42;" parent="OawIMf_CP--zUOg47wnV-33" vertex="1" connectable="0">
          <mxGeometry x="-0.9444" relative="1" as="geometry">
            <mxPoint as="offset" />
          </mxGeometry>
        </mxCell>
        <mxCell id="OawIMf_CP--zUOg47wnV-39" value="" style="edgeStyle=orthogonalEdgeStyle;rounded=0;orthogonalLoop=1;jettySize=auto;html=1;strokeColor=#C9AB42;fontSize=20;" parent="kk27pRFW-uQP8ShshRhL-3" source="OawIMf_CP--zUOg47wnV-26" target="OawIMf_CP--zUOg47wnV-38" edge="1">
          <mxGeometry relative="1" as="geometry" />
        </mxCell>
        <mxCell id="OawIMf_CP--zUOg47wnV-42" value="不通过" style="edgeLabel;html=1;align=center;verticalAlign=middle;resizable=0;points=[];fontSize=12;fontColor=#C9AB42;" parent="OawIMf_CP--zUOg47wnV-39" vertex="1" connectable="0">
          <mxGeometry x="-0.42" y="1" relative="1" as="geometry">
            <mxPoint as="offset" />
          </mxGeometry>
        </mxCell>
        <mxCell id="OawIMf_CP--zUOg47wnV-40" style="edgeStyle=orthogonalEdgeStyle;rounded=0;orthogonalLoop=1;jettySize=auto;html=1;exitX=0;exitY=0.5;exitDx=0;exitDy=0;strokeColor=#C9AB42;fontSize=20;entryX=0;entryY=0.5;entryDx=0;entryDy=0;" parent="kk27pRFW-uQP8ShshRhL-3" source="OawIMf_CP--zUOg47wnV-38" target="OawIMf_CP--zUOg47wnV-18" edge="1">
          <mxGeometry relative="1" as="geometry">
            <mxPoint x="1010" y="210" as="targetPoint" />
            <Array as="points">
              <mxPoint x="790" y="320" />
              <mxPoint x="790" y="170" />
            </Array>
          </mxGeometry>
        </mxCell>
        <mxCell id="OawIMf_CP--zUOg47wnV-44" value="" style="edgeStyle=orthogonalEdgeStyle;rounded=0;orthogonalLoop=1;jettySize=auto;html=1;strokeColor=#C9AB42;fontSize=12;fontColor=#FFC000;jumpStyle=arc;jumpSize=12;" parent="kk27pRFW-uQP8ShshRhL-3" source="OawIMf_CP--zUOg47wnV-28" target="OawIMf_CP--zUOg47wnV-43" edge="1">
          <mxGeometry relative="1" as="geometry" />
        </mxCell>
        <mxCell id="OawIMf_CP--zUOg47wnV-45" value="不通过" style="edgeLabel;html=1;align=center;verticalAlign=middle;resizable=0;points=[];fontSize=12;fontColor=#C9AB42;" parent="OawIMf_CP--zUOg47wnV-44" vertex="1" connectable="0">
          <mxGeometry x="-0.8852" relative="1" as="geometry">
            <mxPoint as="offset" />
          </mxGeometry>
        </mxCell>
        <mxCell id="OawIMf_CP--zUOg47wnV-47" value="" style="edgeStyle=orthogonalEdgeStyle;rounded=0;orthogonalLoop=1;jettySize=auto;html=1;strokeColor=#C9AB42;fontSize=12;fontColor=#FFC000;jumpStyle=arc;jumpSize=12;" parent="kk27pRFW-uQP8ShshRhL-3" source="OawIMf_CP--zUOg47wnV-30" target="OawIMf_CP--zUOg47wnV-46" edge="1">
          <mxGeometry relative="1" as="geometry" />
        </mxCell>
        <mxCell id="OawIMf_CP--zUOg47wnV-48" value="不通过" style="edgeLabel;html=1;align=center;verticalAlign=middle;resizable=0;points=[];fontSize=12;fontColor=#C9AB42;" parent="OawIMf_CP--zUOg47wnV-47" vertex="1" connectable="0">
          <mxGeometry x="-0.9173" y="-2" relative="1" as="geometry">
            <mxPoint as="offset" />
          </mxGeometry>
        </mxCell>
        <mxCell id="OawIMf_CP--zUOg47wnV-49" style="edgeStyle=orthogonalEdgeStyle;rounded=0;jumpStyle=arc;jumpSize=12;orthogonalLoop=1;jettySize=auto;html=1;exitX=0.5;exitY=1;exitDx=0;exitDy=0;strokeColor=#C9AB42;fontSize=12;fontColor=#FFC000;" parent="kk27pRFW-uQP8ShshRhL-3" source="OawIMf_CP--zUOg47wnV-28" edge="1">
          <mxGeometry relative="1" as="geometry">
            <mxPoint x="1360" y="610" as="targetPoint" />
          </mxGeometry>
        </mxCell>
        <mxCell id="OawIMf_CP--zUOg47wnV-51" value="通过" style="edgeLabel;html=1;align=center;verticalAlign=middle;resizable=0;points=[];fontSize=12;fontColor=#C9AB42;" parent="OawIMf_CP--zUOg47wnV-49" vertex="1" connectable="0">
          <mxGeometry x="-0.8962" relative="1" as="geometry">
            <mxPoint as="offset" />
          </mxGeometry>
        </mxCell>
        <mxCell id="OawIMf_CP--zUOg47wnV-52" style="edgeStyle=orthogonalEdgeStyle;rounded=0;jumpStyle=arc;jumpSize=12;orthogonalLoop=1;jettySize=auto;html=1;exitX=0.5;exitY=1;exitDx=0;exitDy=0;strokeColor=#C9AB42;fontSize=12;fontColor=#FFC000;entryX=0.5;entryY=0;entryDx=0;entryDy=0;" parent="kk27pRFW-uQP8ShshRhL-3" source="OawIMf_CP--zUOg47wnV-30" target="OawIMf_CP--zUOg47wnV-260" edge="1">
          <mxGeometry relative="1" as="geometry">
            <mxPoint x="1040" y="590" as="targetPoint" />
          </mxGeometry>
        </mxCell>
        <mxCell id="OawIMf_CP--zUOg47wnV-53" value="通过" style="edgeLabel;html=1;align=center;verticalAlign=middle;resizable=0;points=[];fontSize=12;fontColor=#C9AB42;" parent="OawIMf_CP--zUOg47wnV-52" vertex="1" connectable="0">
          <mxGeometry x="-0.9646" y="1" relative="1" as="geometry">
            <mxPoint as="offset" />
          </mxGeometry>
        </mxCell>
        <mxCell id="OawIMf_CP--zUOg47wnV-63" value="" style="edgeStyle=orthogonalEdgeStyle;rounded=0;jumpStyle=arc;jumpSize=12;orthogonalLoop=1;jettySize=auto;html=1;strokeColor=#C9AB42;fontSize=12;fontColor=#FFC000;exitX=0.5;exitY=0;exitDx=0;exitDy=0;" parent="kk27pRFW-uQP8ShshRhL-3" source="OawIMf_CP--zUOg47wnV-36" target="OawIMf_CP--zUOg47wnV-62" edge="1">
          <mxGeometry relative="1" as="geometry">
            <Array as="points">
              <mxPoint x="240" y="580" />
            </Array>
          </mxGeometry>
        </mxCell>
        <mxCell id="OawIMf_CP--zUOg47wnV-65" value="不通过" style="edgeLabel;html=1;align=center;verticalAlign=middle;resizable=0;points=[];fontSize=12;fontColor=#C9AB42;" parent="OawIMf_CP--zUOg47wnV-63" vertex="1" connectable="0">
          <mxGeometry x="-0.9371" y="-2" relative="1" as="geometry">
            <mxPoint as="offset" />
          </mxGeometry>
        </mxCell>
        <mxCell id="OawIMf_CP--zUOg47wnV-68" style="edgeStyle=orthogonalEdgeStyle;rounded=0;jumpStyle=arc;jumpSize=12;orthogonalLoop=1;jettySize=auto;html=1;exitX=0.5;exitY=1;exitDx=0;exitDy=0;strokeColor=#C9AB42;fontSize=12;fontColor=#FFC000;entryX=0;entryY=0.5;entryDx=0;entryDy=0;" parent="kk27pRFW-uQP8ShshRhL-3" source="OawIMf_CP--zUOg47wnV-36" target="OawIMf_CP--zUOg47wnV-67" edge="1">
          <mxGeometry relative="1" as="geometry">
            <mxPoint x="810" y="740" as="targetPoint" />
          </mxGeometry>
        </mxCell>
        <mxCell id="OawIMf_CP--zUOg47wnV-71" value="通过" style="edgeLabel;html=1;align=center;verticalAlign=middle;resizable=0;points=[];fontSize=12;fontColor=#C9AB42;" parent="OawIMf_CP--zUOg47wnV-68" vertex="1" connectable="0">
          <mxGeometry x="-0.9516" y="1" relative="1" as="geometry">
            <mxPoint as="offset" />
          </mxGeometry>
        </mxCell>
        <mxCell id="OawIMf_CP--zUOg47wnV-70" style="edgeStyle=orthogonalEdgeStyle;rounded=0;jumpStyle=arc;jumpSize=12;orthogonalLoop=1;jettySize=auto;html=1;exitX=1;exitY=0.5;exitDx=0;exitDy=0;entryX=0.5;entryY=0;entryDx=0;entryDy=0;strokeColor=#C9AB42;fontSize=12;fontColor=#FFC000;" parent="kk27pRFW-uQP8ShshRhL-3" source="OawIMf_CP--zUOg47wnV-69" target="OawIMf_CP--zUOg47wnV-67" edge="1">
          <mxGeometry relative="1" as="geometry" />
        </mxCell>
        <mxCell id="OawIMf_CP--zUOg47wnV-262" style="edgeStyle=orthogonalEdgeStyle;rounded=0;jumpStyle=arc;jumpSize=12;orthogonalLoop=1;jettySize=auto;html=1;exitX=0;exitY=0.5;exitDx=0;exitDy=0;strokeColor=#C9AB42;fontSize=14;fontColor=#333333;entryX=1;entryY=0.5;entryDx=0;entryDy=0;" parent="kk27pRFW-uQP8ShshRhL-3" source="OawIMf_CP--zUOg47wnV-260" target="OawIMf_CP--zUOg47wnV-32" edge="1">
          <mxGeometry relative="1" as="geometry">
            <mxPoint x="680" y="640" as="targetPoint" />
          </mxGeometry>
        </mxCell>
        <mxCell id="OawIMf_CP--zUOg47wnV-72" value="发布阶段" style="swimlane;startSize=30;horizontal=0;fillColor=#92D050;fontSize=14;" parent="kk27pRFW-uQP8ShshRhL-2" vertex="1">
          <mxGeometry y="860" width="1760" height="380" as="geometry" />
        </mxCell>
        <mxCell id="OawIMf_CP--zUOg47wnV-73" value="" style="swimlane;startSize=0;" parent="OawIMf_CP--zUOg47wnV-72" vertex="1">
          <mxGeometry x="760" width="200" height="380" as="geometry" />
        </mxCell>
        <mxCell id="OawIMf_CP--zUOg47wnV-74" value="" style="edgeStyle=orthogonalEdgeStyle;rounded=0;orthogonalLoop=1;jettySize=auto;html=1;strokeColor=#FFC000;" parent="OawIMf_CP--zUOg47wnV-73" edge="1">
          <mxGeometry relative="1" as="geometry">
            <mxPoint x="140" y="140" as="targetPoint" />
          </mxGeometry>
        </mxCell>
        <mxCell id="OawIMf_CP--zUOg47wnV-81" value="" style="swimlane;startSize=0;" parent="OawIMf_CP--zUOg47wnV-72" vertex="1">
          <mxGeometry x="960" width="160" height="380" as="geometry" />
        </mxCell>
        <mxCell id="OawIMf_CP--zUOg47wnV-83" value="" style="swimlane;startSize=0;" parent="OawIMf_CP--zUOg47wnV-72" vertex="1">
          <mxGeometry x="1120" width="160" height="380" as="geometry" />
        </mxCell>
        <mxCell id="OawIMf_CP--zUOg47wnV-86" value="" style="edgeStyle=orthogonalEdgeStyle;rounded=0;orthogonalLoop=1;jettySize=auto;html=1;strokeColor=#FFC000;" parent="OawIMf_CP--zUOg47wnV-83" edge="1">
          <mxGeometry relative="1" as="geometry">
            <mxPoint x="100" y="250" as="sourcePoint" />
          </mxGeometry>
        </mxCell>
        <mxCell id="OawIMf_CP--zUOg47wnV-87" value="" style="swimlane;startSize=0;" parent="OawIMf_CP--zUOg47wnV-72" vertex="1">
          <mxGeometry x="1440" width="160" height="380" as="geometry" />
        </mxCell>
        <mxCell id="OawIMf_CP--zUOg47wnV-90" value="" style="edgeStyle=orthogonalEdgeStyle;rounded=0;orthogonalLoop=1;jettySize=auto;html=1;strokeColor=#FFC000;" parent="OawIMf_CP--zUOg47wnV-87" edge="1">
          <mxGeometry relative="1" as="geometry">
            <mxPoint x="110" y="250" as="sourcePoint" />
          </mxGeometry>
        </mxCell>
        <mxCell id="OawIMf_CP--zUOg47wnV-131" value="" style="edgeStyle=orthogonalEdgeStyle;rounded=0;jumpStyle=arc;jumpSize=12;orthogonalLoop=1;jettySize=auto;html=1;strokeColor=#C9AB42;fontSize=12;fontColor=#FFC000;" parent="OawIMf_CP--zUOg47wnV-87" source="OawIMf_CP--zUOg47wnV-127" target="OawIMf_CP--zUOg47wnV-130" edge="1">
          <mxGeometry relative="1" as="geometry" />
        </mxCell>
        <mxCell id="OawIMf_CP--zUOg47wnV-127" value="&lt;font style=&quot;font-size: 16px;&quot;&gt;部署上线&lt;/font&gt;" style="whiteSpace=wrap;html=1;fillColor=#f5f5f5;strokeColor=#666666;fontColor=#333333;shadow=1;" parent="OawIMf_CP--zUOg47wnV-87" vertex="1">
          <mxGeometry x="20" y="60" width="120" height="60" as="geometry" />
        </mxCell>
        <mxCell id="OawIMf_CP--zUOg47wnV-130" value="&lt;font style=&quot;font-size: 16px;&quot;&gt;是否成功&lt;/font&gt;" style="rhombus;whiteSpace=wrap;html=1;fillColor=#f5f5f5;strokeColor=#666666;fontColor=#333333;shadow=1;" parent="OawIMf_CP--zUOg47wnV-87" vertex="1">
          <mxGeometry x="40" y="150" width="80" height="80" as="geometry" />
        </mxCell>
        <mxCell id="OawIMf_CP--zUOg47wnV-135" value="修复后重新上线" style="edgeStyle=orthogonalEdgeStyle;rounded=0;jumpStyle=arc;jumpSize=12;orthogonalLoop=1;jettySize=auto;html=1;exitX=1;exitY=0.5;exitDx=0;exitDy=0;entryX=1;entryY=0.5;entryDx=0;entryDy=0;strokeColor=#C9AB42;fontSize=12;fontColor=#C9AB42;" parent="OawIMf_CP--zUOg47wnV-87" source="OawIMf_CP--zUOg47wnV-132" target="OawIMf_CP--zUOg47wnV-127" edge="1">
          <mxGeometry relative="1" as="geometry">
            <Array as="points">
              <mxPoint x="150" y="310" />
              <mxPoint x="150" y="90" />
            </Array>
          </mxGeometry>
        </mxCell>
        <mxCell id="OawIMf_CP--zUOg47wnV-132" value="&lt;font style=&quot;font-size: 16px;&quot;&gt;发布回滚&lt;/font&gt;" style="whiteSpace=wrap;html=1;fillColor=#f5f5f5;strokeColor=#666666;fontColor=#333333;shadow=1;" parent="OawIMf_CP--zUOg47wnV-87" vertex="1">
          <mxGeometry x="20" y="280" width="120" height="60" as="geometry" />
        </mxCell>
        <mxCell id="OawIMf_CP--zUOg47wnV-133" value="" style="edgeStyle=orthogonalEdgeStyle;rounded=0;jumpStyle=arc;jumpSize=12;orthogonalLoop=1;jettySize=auto;html=1;strokeColor=#C9AB42;fontSize=12;fontColor=#FFC000;" parent="OawIMf_CP--zUOg47wnV-87" source="OawIMf_CP--zUOg47wnV-130" target="OawIMf_CP--zUOg47wnV-132" edge="1">
          <mxGeometry relative="1" as="geometry" />
        </mxCell>
        <mxCell id="OawIMf_CP--zUOg47wnV-134" value="否" style="edgeLabel;html=1;align=center;verticalAlign=middle;resizable=0;points=[];fontSize=12;fontColor=#C9AB42;" parent="OawIMf_CP--zUOg47wnV-133" vertex="1" connectable="0">
          <mxGeometry x="-0.12" relative="1" as="geometry">
            <mxPoint as="offset" />
          </mxGeometry>
        </mxCell>
        <mxCell id="OawIMf_CP--zUOg47wnV-92" value="" style="swimlane;startSize=0;" parent="OawIMf_CP--zUOg47wnV-72" vertex="1">
          <mxGeometry x="1280" width="160" height="380" as="geometry">
            <mxRectangle x="1550" width="50" height="40" as="alternateBounds" />
          </mxGeometry>
        </mxCell>
        <mxCell id="OawIMf_CP--zUOg47wnV-93" value="" style="edgeStyle=orthogonalEdgeStyle;rounded=0;orthogonalLoop=1;jettySize=auto;html=1;strokeColor=#FFC000;" parent="OawIMf_CP--zUOg47wnV-92" edge="1">
          <mxGeometry relative="1" as="geometry">
            <mxPoint x="100" y="250" as="sourcePoint" />
          </mxGeometry>
        </mxCell>
        <mxCell id="OawIMf_CP--zUOg47wnV-97" value="" style="swimlane;fillColor=#92D050;startSize=0;" parent="OawIMf_CP--zUOg47wnV-72" vertex="1">
          <mxGeometry x="440" width="160" height="380" as="geometry" />
        </mxCell>
        <mxCell id="OawIMf_CP--zUOg47wnV-98" value="" style="swimlane;fillColor=#92D050;startSize=0;" parent="OawIMf_CP--zUOg47wnV-72" vertex="1">
          <mxGeometry x="600" width="160" height="380" as="geometry" />
        </mxCell>
        <mxCell id="OawIMf_CP--zUOg47wnV-99" value="" style="swimlane;startSize=0;fillColor=#92D050;" parent="OawIMf_CP--zUOg47wnV-72" vertex="1">
          <mxGeometry x="30" width="160" height="380" as="geometry" />
        </mxCell>
        <mxCell id="OawIMf_CP--zUOg47wnV-100" value="" style="swimlane;startSize=0;" parent="OawIMf_CP--zUOg47wnV-72" vertex="1">
          <mxGeometry x="1600" width="160" height="380" as="geometry">
            <mxRectangle x="1601" width="50" height="40" as="alternateBounds" />
          </mxGeometry>
        </mxCell>
        <mxCell id="OawIMf_CP--zUOg47wnV-101" value="" style="swimlane;startSize=0;fillColor=#92D050;" parent="OawIMf_CP--zUOg47wnV-72" vertex="1">
          <mxGeometry x="190" width="250" height="380" as="geometry" />
        </mxCell>
        <mxCell id="OawIMf_CP--zUOg47wnV-106" value="" style="edgeStyle=orthogonalEdgeStyle;rounded=0;orthogonalLoop=1;jettySize=auto;html=1;strokeColor=#FFC000;jumpStyle=arc;jumpSize=12;" parent="OawIMf_CP--zUOg47wnV-72" edge="1">
          <mxGeometry relative="1" as="geometry">
            <mxPoint x="1450" y="190" as="targetPoint" />
            <Array as="points">
              <mxPoint x="1450" y="170" />
            </Array>
          </mxGeometry>
        </mxCell>
        <mxCell id="OawIMf_CP--zUOg47wnV-107" value="" style="edgeStyle=orthogonalEdgeStyle;rounded=0;orthogonalLoop=1;jettySize=auto;html=1;strokeColor=#FFC000;entryX=0.5;entryY=0;entryDx=0;entryDy=0;jumpStyle=arc;jumpSize=12;" parent="OawIMf_CP--zUOg47wnV-72" edge="1">
          <mxGeometry relative="1" as="geometry">
            <mxPoint x="1650" y="190" as="targetPoint" />
          </mxGeometry>
        </mxCell>
        <mxCell id="OawIMf_CP--zUOg47wnV-108" value="" style="edgeStyle=orthogonalEdgeStyle;rounded=0;orthogonalLoop=1;jettySize=auto;html=1;strokeColor=#FFC000;jumpStyle=arc;jumpSize=12;" parent="OawIMf_CP--zUOg47wnV-72" edge="1">
          <mxGeometry relative="1" as="geometry">
            <mxPoint x="1850" y="190" as="targetPoint" />
            <Array as="points">
              <mxPoint x="1850" y="170" />
            </Array>
          </mxGeometry>
        </mxCell>
        <mxCell id="OawIMf_CP--zUOg47wnV-111" value="" style="edgeStyle=orthogonalEdgeStyle;rounded=0;orthogonalLoop=1;jettySize=auto;html=1;strokeColor=#FFC000;fontSize=20;" parent="OawIMf_CP--zUOg47wnV-72" edge="1">
          <mxGeometry relative="1" as="geometry">
            <mxPoint x="1310" y="320" as="targetPoint" />
          </mxGeometry>
        </mxCell>
        <mxCell id="OawIMf_CP--zUOg47wnV-112" value="不通过" style="edgeLabel;html=1;align=center;verticalAlign=middle;resizable=0;points=[];fontSize=12;fontColor=#FFC000;" parent="OawIMf_CP--zUOg47wnV-111" vertex="1" connectable="0">
          <mxGeometry x="-0.42" y="1" relative="1" as="geometry">
            <mxPoint as="offset" />
          </mxGeometry>
        </mxCell>
        <mxCell id="OawIMf_CP--zUOg47wnV-113" style="edgeStyle=orthogonalEdgeStyle;rounded=0;orthogonalLoop=1;jettySize=auto;html=1;exitX=0;exitY=0.5;exitDx=0;exitDy=0;strokeColor=#FFC000;fontSize=20;entryX=0;entryY=0.5;entryDx=0;entryDy=0;" parent="OawIMf_CP--zUOg47wnV-72" edge="1">
          <mxGeometry relative="1" as="geometry">
            <mxPoint x="950" y="170" as="targetPoint" />
            <Array as="points">
              <mxPoint x="900" y="320" />
              <mxPoint x="900" y="170" />
            </Array>
          </mxGeometry>
        </mxCell>
        <mxCell id="OawIMf_CP--zUOg47wnV-114" value="" style="edgeStyle=orthogonalEdgeStyle;rounded=0;orthogonalLoop=1;jettySize=auto;html=1;strokeColor=#FFC000;fontSize=12;fontColor=#FFC000;jumpStyle=arc;jumpSize=12;" parent="OawIMf_CP--zUOg47wnV-72" edge="1">
          <mxGeometry relative="1" as="geometry">
            <mxPoint x="1070" y="380" as="targetPoint" />
          </mxGeometry>
        </mxCell>
        <mxCell id="OawIMf_CP--zUOg47wnV-115" value="不通过" style="edgeLabel;html=1;align=center;verticalAlign=middle;resizable=0;points=[];fontSize=12;fontColor=#FFC000;" parent="OawIMf_CP--zUOg47wnV-114" vertex="1" connectable="0">
          <mxGeometry x="-0.8852" relative="1" as="geometry">
            <mxPoint as="offset" />
          </mxGeometry>
        </mxCell>
        <mxCell id="OawIMf_CP--zUOg47wnV-116" value="" style="edgeStyle=orthogonalEdgeStyle;rounded=0;orthogonalLoop=1;jettySize=auto;html=1;strokeColor=#FFC000;fontSize=12;fontColor=#FFC000;jumpStyle=arc;jumpSize=12;" parent="OawIMf_CP--zUOg47wnV-72" edge="1">
          <mxGeometry relative="1" as="geometry">
            <mxPoint x="1070" y="470" as="targetPoint" />
          </mxGeometry>
        </mxCell>
        <mxCell id="OawIMf_CP--zUOg47wnV-117" value="不通过" style="edgeLabel;html=1;align=center;verticalAlign=middle;resizable=0;points=[];fontSize=12;fontColor=#FFC000;" parent="OawIMf_CP--zUOg47wnV-116" vertex="1" connectable="0">
          <mxGeometry x="-0.9173" y="-2" relative="1" as="geometry">
            <mxPoint as="offset" />
          </mxGeometry>
        </mxCell>
        <mxCell id="OawIMf_CP--zUOg47wnV-136" value="线上验证阶段" style="swimlane;startSize=30;horizontal=0;fillColor=#92D050;fontSize=14;" parent="kk27pRFW-uQP8ShshRhL-2" vertex="1">
          <mxGeometry y="1240" width="1760" height="770" as="geometry" />
        </mxCell>
        <mxCell id="OawIMf_CP--zUOg47wnV-137" value="" style="swimlane;startSize=0;" parent="OawIMf_CP--zUOg47wnV-136" vertex="1">
          <mxGeometry x="760" width="200" height="770" as="geometry" />
        </mxCell>
        <mxCell id="OawIMf_CP--zUOg47wnV-138" value="" style="edgeStyle=orthogonalEdgeStyle;rounded=0;orthogonalLoop=1;jettySize=auto;html=1;strokeColor=#FFC000;" parent="OawIMf_CP--zUOg47wnV-137" edge="1">
          <mxGeometry relative="1" as="geometry">
            <mxPoint x="140" y="140" as="targetPoint" />
          </mxGeometry>
        </mxCell>
        <mxCell id="OawIMf_CP--zUOg47wnV-185" value="&lt;font style=&quot;font-size: 16px;&quot;&gt;代码基线&lt;/font&gt;" style="whiteSpace=wrap;html=1;fillColor=#f5f5f5;strokeColor=#666666;fontColor=#333333;shadow=1;" parent="OawIMf_CP--zUOg47wnV-137" vertex="1">
          <mxGeometry x="40" y="480" width="120" height="60" as="geometry" />
        </mxCell>
        <mxCell id="OawIMf_CP--zUOg47wnV-139" value="" style="swimlane;startSize=0;" parent="OawIMf_CP--zUOg47wnV-136" vertex="1">
          <mxGeometry x="960" width="160" height="770" as="geometry" />
        </mxCell>
        <mxCell id="OawIMf_CP--zUOg47wnV-178" value="&lt;font style=&quot;font-size: 16px;&quot;&gt;BUG修复&lt;/font&gt;" style="whiteSpace=wrap;html=1;fillColor=#f5f5f5;strokeColor=#666666;fontColor=#333333;shadow=1;" parent="OawIMf_CP--zUOg47wnV-139" vertex="1">
          <mxGeometry x="20" y="140" width="120" height="60" as="geometry" />
        </mxCell>
        <mxCell id="OawIMf_CP--zUOg47wnV-142" value="" style="swimlane;startSize=0;" parent="OawIMf_CP--zUOg47wnV-136" vertex="1">
          <mxGeometry x="1440" width="160" height="770" as="geometry" />
        </mxCell>
        <mxCell id="OawIMf_CP--zUOg47wnV-143" value="" style="edgeStyle=orthogonalEdgeStyle;rounded=0;orthogonalLoop=1;jettySize=auto;html=1;strokeColor=#FFC000;" parent="OawIMf_CP--zUOg47wnV-142" edge="1">
          <mxGeometry relative="1" as="geometry">
            <mxPoint x="110" y="250" as="sourcePoint" />
          </mxGeometry>
        </mxCell>
        <mxCell id="OawIMf_CP--zUOg47wnV-175" value="&lt;font style=&quot;font-size: 16px;&quot;&gt;发布回滚&lt;/font&gt;" style="whiteSpace=wrap;html=1;fillColor=#f5f5f5;strokeColor=#666666;fontColor=#333333;shadow=1;" parent="OawIMf_CP--zUOg47wnV-142" vertex="1">
          <mxGeometry x="20" y="140" width="120" height="60" as="geometry" />
        </mxCell>
        <mxCell id="OawIMf_CP--zUOg47wnV-154" value="" style="swimlane;fillColor=#92D050;startSize=0;" parent="OawIMf_CP--zUOg47wnV-136" vertex="1">
          <mxGeometry x="600" width="160" height="770" as="geometry" />
        </mxCell>
        <mxCell id="OawIMf_CP--zUOg47wnV-151" value="" style="swimlane;startSize=0;" parent="OawIMf_CP--zUOg47wnV-136" vertex="1">
          <mxGeometry x="1280" width="160" height="770" as="geometry">
            <mxRectangle x="1550" width="50" height="40" as="alternateBounds" />
          </mxGeometry>
        </mxCell>
        <mxCell id="OawIMf_CP--zUOg47wnV-152" value="" style="edgeStyle=orthogonalEdgeStyle;rounded=0;orthogonalLoop=1;jettySize=auto;html=1;strokeColor=#FFC000;" parent="OawIMf_CP--zUOg47wnV-151" edge="1">
          <mxGeometry relative="1" as="geometry">
            <mxPoint x="100" y="250" as="sourcePoint" />
          </mxGeometry>
        </mxCell>
        <mxCell id="OawIMf_CP--zUOg47wnV-155" value="" style="swimlane;startSize=0;fillColor=#92D050;" parent="OawIMf_CP--zUOg47wnV-136" vertex="1">
          <mxGeometry x="30" width="160" height="770" as="geometry" />
        </mxCell>
        <mxCell id="OawIMf_CP--zUOg47wnV-156" value="" style="swimlane;startSize=0;" parent="OawIMf_CP--zUOg47wnV-136" vertex="1">
          <mxGeometry x="1600" width="160" height="770" as="geometry">
            <mxRectangle x="1960" width="50" height="40" as="alternateBounds" />
          </mxGeometry>
        </mxCell>
        <mxCell id="OawIMf_CP--zUOg47wnV-252" value="&lt;font style=&quot;font-size: 16px;&quot; color=&quot;#333333&quot;&gt;系统部署情况文档&lt;/font&gt;" style="shape=document;whiteSpace=wrap;html=1;boundedLbl=1;shadow=1;sketch=0;fontSize=12;fontColor=#FFC000;fillColor=#F5F5F5;" parent="OawIMf_CP--zUOg47wnV-156" vertex="1">
          <mxGeometry x="20" y="200" width="120" height="80" as="geometry" />
        </mxCell>
        <mxCell id="OawIMf_CP--zUOg47wnV-157" value="" style="swimlane;startSize=0;fillColor=#92D050;" parent="OawIMf_CP--zUOg47wnV-136" vertex="1">
          <mxGeometry x="190" width="250" height="770" as="geometry" />
        </mxCell>
        <mxCell id="OawIMf_CP--zUOg47wnV-158" value="" style="edgeStyle=orthogonalEdgeStyle;rounded=0;orthogonalLoop=1;jettySize=auto;html=1;strokeColor=#FFC000;jumpStyle=arc;jumpSize=12;" parent="OawIMf_CP--zUOg47wnV-136" edge="1">
          <mxGeometry relative="1" as="geometry">
            <mxPoint x="1450" y="190" as="targetPoint" />
            <Array as="points">
              <mxPoint x="1450" y="170" />
            </Array>
          </mxGeometry>
        </mxCell>
        <mxCell id="OawIMf_CP--zUOg47wnV-159" value="" style="edgeStyle=orthogonalEdgeStyle;rounded=0;orthogonalLoop=1;jettySize=auto;html=1;strokeColor=#FFC000;entryX=0.5;entryY=0;entryDx=0;entryDy=0;jumpStyle=arc;jumpSize=12;" parent="OawIMf_CP--zUOg47wnV-136" edge="1">
          <mxGeometry relative="1" as="geometry">
            <mxPoint x="1650" y="190" as="targetPoint" />
          </mxGeometry>
        </mxCell>
        <mxCell id="OawIMf_CP--zUOg47wnV-160" value="" style="edgeStyle=orthogonalEdgeStyle;rounded=0;orthogonalLoop=1;jettySize=auto;html=1;strokeColor=#FFC000;jumpStyle=arc;jumpSize=12;" parent="OawIMf_CP--zUOg47wnV-136" edge="1">
          <mxGeometry relative="1" as="geometry">
            <mxPoint x="1850" y="190" as="targetPoint" />
            <Array as="points">
              <mxPoint x="1850" y="170" />
            </Array>
          </mxGeometry>
        </mxCell>
        <mxCell id="OawIMf_CP--zUOg47wnV-161" value="" style="edgeStyle=orthogonalEdgeStyle;rounded=0;orthogonalLoop=1;jettySize=auto;html=1;strokeColor=#FFC000;fontSize=20;" parent="OawIMf_CP--zUOg47wnV-136" edge="1">
          <mxGeometry relative="1" as="geometry">
            <mxPoint x="1310" y="320" as="targetPoint" />
          </mxGeometry>
        </mxCell>
        <mxCell id="OawIMf_CP--zUOg47wnV-162" value="不通过" style="edgeLabel;html=1;align=center;verticalAlign=middle;resizable=0;points=[];fontSize=12;fontColor=#FFC000;" parent="OawIMf_CP--zUOg47wnV-161" vertex="1" connectable="0">
          <mxGeometry x="-0.42" y="1" relative="1" as="geometry">
            <mxPoint as="offset" />
          </mxGeometry>
        </mxCell>
        <mxCell id="OawIMf_CP--zUOg47wnV-163" style="edgeStyle=orthogonalEdgeStyle;rounded=0;orthogonalLoop=1;jettySize=auto;html=1;exitX=0;exitY=0.5;exitDx=0;exitDy=0;strokeColor=#FFC000;fontSize=20;entryX=0;entryY=0.5;entryDx=0;entryDy=0;" parent="OawIMf_CP--zUOg47wnV-136" edge="1">
          <mxGeometry relative="1" as="geometry">
            <mxPoint x="950" y="170" as="targetPoint" />
            <Array as="points">
              <mxPoint x="900" y="320" />
              <mxPoint x="900" y="170" />
            </Array>
          </mxGeometry>
        </mxCell>
        <mxCell id="OawIMf_CP--zUOg47wnV-164" value="" style="edgeStyle=orthogonalEdgeStyle;rounded=0;orthogonalLoop=1;jettySize=auto;html=1;strokeColor=#FFC000;fontSize=12;fontColor=#FFC000;jumpStyle=arc;jumpSize=12;" parent="OawIMf_CP--zUOg47wnV-136" edge="1">
          <mxGeometry relative="1" as="geometry">
            <mxPoint x="1070" y="380" as="targetPoint" />
          </mxGeometry>
        </mxCell>
        <mxCell id="OawIMf_CP--zUOg47wnV-165" value="不通过" style="edgeLabel;html=1;align=center;verticalAlign=middle;resizable=0;points=[];fontSize=12;fontColor=#FFC000;" parent="OawIMf_CP--zUOg47wnV-164" vertex="1" connectable="0">
          <mxGeometry x="-0.8852" relative="1" as="geometry">
            <mxPoint as="offset" />
          </mxGeometry>
        </mxCell>
        <mxCell id="OawIMf_CP--zUOg47wnV-166" value="" style="edgeStyle=orthogonalEdgeStyle;rounded=0;orthogonalLoop=1;jettySize=auto;html=1;strokeColor=#FFC000;fontSize=12;fontColor=#FFC000;jumpStyle=arc;jumpSize=12;" parent="OawIMf_CP--zUOg47wnV-136" edge="1">
          <mxGeometry relative="1" as="geometry">
            <mxPoint x="1070" y="470" as="targetPoint" />
          </mxGeometry>
        </mxCell>
        <mxCell id="OawIMf_CP--zUOg47wnV-167" value="不通过" style="edgeLabel;html=1;align=center;verticalAlign=middle;resizable=0;points=[];fontSize=12;fontColor=#FFC000;" parent="OawIMf_CP--zUOg47wnV-166" vertex="1" connectable="0">
          <mxGeometry x="-0.9173" y="-2" relative="1" as="geometry">
            <mxPoint as="offset" />
          </mxGeometry>
        </mxCell>
        <mxCell id="OawIMf_CP--zUOg47wnV-176" style="edgeStyle=orthogonalEdgeStyle;rounded=0;jumpStyle=arc;jumpSize=12;orthogonalLoop=1;jettySize=auto;html=1;exitX=1;exitY=0.5;exitDx=0;exitDy=0;entryX=0;entryY=0.5;entryDx=0;entryDy=0;strokeColor=#C9AB42;fontSize=12;fontColor=#FFC000;" parent="OawIMf_CP--zUOg47wnV-136" source="OawIMf_CP--zUOg47wnV-171" target="OawIMf_CP--zUOg47wnV-175" edge="1">
          <mxGeometry relative="1" as="geometry" />
        </mxCell>
        <mxCell id="OawIMf_CP--zUOg47wnV-177" value="不通过" style="edgeLabel;html=1;align=center;verticalAlign=middle;resizable=0;points=[];fontSize=12;fontColor=#C9AB42;" parent="OawIMf_CP--zUOg47wnV-176" vertex="1" connectable="0">
          <mxGeometry x="-0.8786" y="1" relative="1" as="geometry">
            <mxPoint as="offset" />
          </mxGeometry>
        </mxCell>
        <mxCell id="OawIMf_CP--zUOg47wnV-179" value="不通过" style="edgeStyle=orthogonalEdgeStyle;rounded=0;jumpStyle=arc;jumpSize=12;orthogonalLoop=1;jettySize=auto;html=1;exitX=0;exitY=0.5;exitDx=0;exitDy=0;entryX=1;entryY=0.5;entryDx=0;entryDy=0;strokeColor=#FFC000;fontSize=12;fontColor=#C9AB42;" parent="OawIMf_CP--zUOg47wnV-136" source="OawIMf_CP--zUOg47wnV-171" target="OawIMf_CP--zUOg47wnV-178" edge="1">
          <mxGeometry relative="1" as="geometry" />
        </mxCell>
        <mxCell id="OawIMf_CP--zUOg47wnV-174" value="" style="edgeStyle=orthogonalEdgeStyle;rounded=0;jumpStyle=arc;jumpSize=12;orthogonalLoop=1;jettySize=auto;html=1;strokeColor=#C9AB42;fontSize=12;fontColor=#FFC000;entryX=0.5;entryY=0;entryDx=0;entryDy=0;" parent="OawIMf_CP--zUOg47wnV-136" source="OawIMf_CP--zUOg47wnV-171" target="OawIMf_CP--zUOg47wnV-182" edge="1">
          <mxGeometry relative="1" as="geometry">
            <mxPoint x="1447" y="240" as="targetPoint" />
            <Array as="points">
              <mxPoint x="1200" y="270" />
              <mxPoint x="690" y="270" />
            </Array>
          </mxGeometry>
        </mxCell>
        <mxCell id="OawIMf_CP--zUOg47wnV-186" style="edgeStyle=orthogonalEdgeStyle;rounded=0;jumpStyle=arc;jumpSize=12;orthogonalLoop=1;jettySize=auto;html=1;exitX=0.5;exitY=1;exitDx=0;exitDy=0;entryX=0.5;entryY=0;entryDx=0;entryDy=0;strokeColor=#C9AB42;fontSize=12;fontColor=#FFC000;" parent="OawIMf_CP--zUOg47wnV-136" source="OawIMf_CP--zUOg47wnV-182" target="OawIMf_CP--zUOg47wnV-185" edge="1">
          <mxGeometry relative="1" as="geometry">
            <Array as="points">
              <mxPoint x="690" y="430" />
              <mxPoint x="860" y="430" />
            </Array>
          </mxGeometry>
        </mxCell>
        <mxCell id="OawIMf_CP--zUOg47wnV-140" value="" style="swimlane;startSize=0;" parent="OawIMf_CP--zUOg47wnV-136" vertex="1">
          <mxGeometry x="1120" width="160" height="770" as="geometry">
            <mxRectangle x="-200" width="50" height="40" as="alternateBounds" />
          </mxGeometry>
        </mxCell>
        <mxCell id="OawIMf_CP--zUOg47wnV-141" value="" style="edgeStyle=orthogonalEdgeStyle;rounded=0;orthogonalLoop=1;jettySize=auto;html=1;strokeColor=#FFC000;" parent="OawIMf_CP--zUOg47wnV-140" edge="1">
          <mxGeometry relative="1" as="geometry">
            <mxPoint x="100" y="250" as="sourcePoint" />
          </mxGeometry>
        </mxCell>
        <mxCell id="OawIMf_CP--zUOg47wnV-168" value="&lt;font style=&quot;font-size: 16px;&quot;&gt;线上验证&lt;/font&gt;" style="whiteSpace=wrap;html=1;fillColor=#f5f5f5;strokeColor=#666666;fontColor=#333333;shadow=1;" parent="OawIMf_CP--zUOg47wnV-140" vertex="1">
          <mxGeometry x="20" y="40" width="120" height="60" as="geometry" />
        </mxCell>
        <mxCell id="OawIMf_CP--zUOg47wnV-171" value="&lt;font style=&quot;font-size: 16px;&quot;&gt;是否通过&lt;/font&gt;" style="rhombus;whiteSpace=wrap;html=1;fillColor=#f5f5f5;strokeColor=#666666;fontColor=#333333;shadow=1;" parent="OawIMf_CP--zUOg47wnV-140" vertex="1">
          <mxGeometry x="40" y="130" width="80" height="80" as="geometry" />
        </mxCell>
        <mxCell id="OawIMf_CP--zUOg47wnV-172" value="" style="edgeStyle=orthogonalEdgeStyle;rounded=0;jumpStyle=arc;jumpSize=12;orthogonalLoop=1;jettySize=auto;html=1;strokeColor=#C9AB42;fontSize=12;fontColor=#FFC000;" parent="OawIMf_CP--zUOg47wnV-140" source="OawIMf_CP--zUOg47wnV-168" target="OawIMf_CP--zUOg47wnV-171" edge="1">
          <mxGeometry relative="1" as="geometry" />
        </mxCell>
        <mxCell id="OawIMf_CP--zUOg47wnV-153" value="" style="swimlane;fillColor=#92D050;startSize=0;" parent="OawIMf_CP--zUOg47wnV-136" vertex="1">
          <mxGeometry x="440" width="160" height="770" as="geometry">
            <mxRectangle x="470" width="50" height="40" as="alternateBounds" />
          </mxGeometry>
        </mxCell>
        <mxCell id="OawIMf_CP--zUOg47wnV-187" value="&lt;font style=&quot;font-size: 16px;&quot;&gt;迭代回顾会议&lt;/font&gt;" style="whiteSpace=wrap;html=1;fillColor=#f5f5f5;strokeColor=#666666;fontColor=#333333;shadow=1;" parent="OawIMf_CP--zUOg47wnV-153" vertex="1">
          <mxGeometry x="20" y="580" width="120" height="60" as="geometry" />
        </mxCell>
        <mxCell id="OawIMf_CP--zUOg47wnV-189" value="&lt;font style=&quot;font-size: 16px;&quot;&gt;结束&lt;/font&gt;" style="ellipse;whiteSpace=wrap;html=1;fillColor=#f5f5f5;strokeColor=#666666;fontColor=#333333;shadow=1;" parent="OawIMf_CP--zUOg47wnV-153" vertex="1">
          <mxGeometry x="20" y="680" width="120" height="60" as="geometry" />
        </mxCell>
        <mxCell id="OawIMf_CP--zUOg47wnV-190" value="" style="edgeStyle=orthogonalEdgeStyle;rounded=0;jumpStyle=arc;jumpSize=12;orthogonalLoop=1;jettySize=auto;html=1;strokeColor=#C9AB42;fontSize=12;fontColor=#FFC000;" parent="OawIMf_CP--zUOg47wnV-153" source="OawIMf_CP--zUOg47wnV-187" target="OawIMf_CP--zUOg47wnV-189" edge="1">
          <mxGeometry relative="1" as="geometry" />
        </mxCell>
        <mxCell id="OawIMf_CP--zUOg47wnV-183" value="&lt;font style=&quot;font-size: 16px;&quot;&gt;发布成功邮件&lt;/font&gt;" style="whiteSpace=wrap;html=1;fillColor=#f5f5f5;strokeColor=#666666;fontColor=#333333;shadow=1;" parent="OawIMf_CP--zUOg47wnV-153" vertex="1">
          <mxGeometry x="20" y="480" width="120" height="60" as="geometry" />
        </mxCell>
        <mxCell id="OawIMf_CP--zUOg47wnV-184" value="" style="edgeStyle=orthogonalEdgeStyle;rounded=0;jumpStyle=arc;jumpSize=12;orthogonalLoop=1;jettySize=auto;html=1;strokeColor=#C9AB42;fontSize=12;fontColor=#FFC000;" parent="OawIMf_CP--zUOg47wnV-153" source="OawIMf_CP--zUOg47wnV-182" target="OawIMf_CP--zUOg47wnV-183" edge="1">
          <mxGeometry relative="1" as="geometry" />
        </mxCell>
        <mxCell id="OawIMf_CP--zUOg47wnV-188" value="" style="edgeStyle=orthogonalEdgeStyle;rounded=0;jumpStyle=arc;jumpSize=12;orthogonalLoop=1;jettySize=auto;html=1;strokeColor=#C9AB42;fontSize=12;fontColor=#FFC000;" parent="OawIMf_CP--zUOg47wnV-153" source="OawIMf_CP--zUOg47wnV-183" target="OawIMf_CP--zUOg47wnV-187" edge="1">
          <mxGeometry relative="1" as="geometry" />
        </mxCell>
        <mxCell id="OawIMf_CP--zUOg47wnV-182" value="&lt;font style=&quot;font-size: 16px;&quot;&gt;最终验收&lt;/font&gt;" style="whiteSpace=wrap;html=1;fillColor=#f5f5f5;strokeColor=#666666;fontColor=#333333;shadow=1;" parent="OawIMf_CP--zUOg47wnV-153" vertex="1">
          <mxGeometry x="80" y="320" width="340" height="60" as="geometry" />
        </mxCell>
        <mxCell id="OawIMf_CP--zUOg47wnV-169" style="edgeStyle=orthogonalEdgeStyle;rounded=0;jumpStyle=arc;jumpSize=12;orthogonalLoop=1;jettySize=auto;html=1;exitX=0;exitY=0.5;exitDx=0;exitDy=0;strokeColor=#C9AB42;fontSize=12;fontColor=#FFC000;" parent="kk27pRFW-uQP8ShshRhL-2" source="OawIMf_CP--zUOg47wnV-130" target="OawIMf_CP--zUOg47wnV-168" edge="1">
          <mxGeometry relative="1" as="geometry" />
        </mxCell>
        <mxCell id="OawIMf_CP--zUOg47wnV-170" value="是" style="edgeLabel;html=1;align=center;verticalAlign=middle;resizable=0;points=[];fontSize=12;fontColor=#C9AB42;" parent="OawIMf_CP--zUOg47wnV-169" vertex="1" connectable="0">
          <mxGeometry x="-0.9172" y="-2" relative="1" as="geometry">
            <mxPoint as="offset" />
          </mxGeometry>
        </mxCell>
        <mxCell id="OawIMf_CP--zUOg47wnV-180" style="edgeStyle=orthogonalEdgeStyle;rounded=0;jumpStyle=arc;jumpSize=12;orthogonalLoop=1;jettySize=auto;html=1;exitX=0.5;exitY=0;exitDx=0;exitDy=0;entryX=0;entryY=0.5;entryDx=0;entryDy=0;strokeColor=#C9AB42;fontSize=12;fontColor=#FFC000;" parent="kk27pRFW-uQP8ShshRhL-2" source="OawIMf_CP--zUOg47wnV-178" target="OawIMf_CP--zUOg47wnV-127" edge="1">
          <mxGeometry relative="1" as="geometry" />
        </mxCell>
        <mxCell id="OawIMf_CP--zUOg47wnV-181" value="重新上线" style="edgeLabel;html=1;align=center;verticalAlign=middle;resizable=0;points=[];fontSize=12;fontColor=#C9AB42;" parent="OawIMf_CP--zUOg47wnV-180" vertex="1" connectable="0">
          <mxGeometry x="-0.9021" relative="1" as="geometry">
            <mxPoint as="offset" />
          </mxGeometry>
        </mxCell>
        <mxCell id="OawIMf_CP--zUOg47wnV-253" style="edgeStyle=orthogonalEdgeStyle;rounded=0;jumpStyle=arc;jumpSize=12;orthogonalLoop=1;jettySize=auto;html=1;exitX=0.5;exitY=1;exitDx=0;exitDy=0;strokeColor=#C9AB42;fontSize=12;fontColor=#333333;" parent="kk27pRFW-uQP8ShshRhL-2" source="OawIMf_CP--zUOg47wnV-67" target="OawIMf_CP--zUOg47wnV-127" edge="1">
          <mxGeometry relative="1" as="geometry" />
        </mxCell>
      </root>
    </mxGraphModel>
  </diagram>
</mxfile>
